<svg width="177" height="177" viewBox="0 0 177 177" fill="none" xmlns="http://www.w3.org/2000/svg">
<path d="M77.4154 27.6562C77.4154 34.9911 74.5016 42.0256 69.315 47.2122C64.1285 52.3987 57.094 55.3125 49.7591 55.3125C42.4242 55.3125 35.3898 52.3987 30.2032 47.2122C25.0166 42.0256 22.1029 34.9911 22.1029 27.6562C22.1029 20.3214 25.0166 13.2869 30.2032 8.10033C35.3898 2.91377 42.4242 0 49.7591 0C57.094 0 64.1285 2.91377 69.315 8.10033C74.5016 13.2869 77.4154 20.3214 77.4154 27.6562ZM124.154 72.4926C123.117 71.9729 121.942 71.7926 120.797 71.9772C119.651 72.1619 118.593 72.7021 117.771 73.5214L76.7295 125.626L47.3032 94.9605C46.2408 94.2532 44.9664 93.935 43.6962 94.06C42.426 94.185 41.238 94.7455 40.3339 95.6464L0 143.812V165.938C0 168.871 1.16551 171.685 3.24013 173.76C5.31475 175.834 8.12854 177 11.0625 177H165.938C167.39 177 168.829 176.714 170.171 176.158C171.513 175.602 172.733 174.787 173.76 173.76C174.787 172.733 175.602 171.513 176.158 170.171C176.714 168.829 177 167.39 177 165.938V116.156L124.154 72.4926Z" fill="#905ECE"/>
</svg>
